  0
SECTION
  2
HEADER
  9
$ANGBASE
 50
0
  9
$ANGDIR
 70
1
  9
$AUNITS
 70
0
  9
$AUPREC
 70
0
  9
$ATTMODE
 70
1
  9
$DWGCODEPAGE
  3
ANSI_1252
  9
$TDCREATE
 40
2461316.9163485533
  9
$DIMSTYLE
  2
Standard
  9
$CECOLOR
 62
256
  9
$CELTSCALE
 40
1
  9
$CELWEIGHT
370
-1
  9
$CLAYER
  8
0
  9
$CELTYPE
  6
ByLayer
  9
$CMLSTYLE
  2
Standard
  9
$CMLJUST
 70
0
  9
$CMLSCALE
 40
20
  9
$TEXTSTYLE
  7
Standard
  9
$LWDISPLAY
290
0
  9
$EXTNAMES
290
1
  9
$HANDSEED
  5
C8
  9
$INSUNITS
 70
0
  9
$LUNITS
 70
2
  9
$LUPREC
 70
4
  9
$LTSCALE
 40
0.5
  9
$MEASUREMENT
 70
1
  9
$MIRRTEXT
 70
0
  9
$INSBASE
 10
0
 20
0
 30
0
  9
$SPLINESEGS
 70
8
  9
$PSLTSCALE
 70
1
  9
$PDMODE
 70
0
  9
$PDSIZE
 40
0
  9
$PLINEGEN
 70
0
  9
$SURFU
 70
6
  9
$SURFV
 70
6
  9
$TEXTSIZE
 40
2.5
  9
$TDINDWG
 40
0
  9
$TDUCREATE
 40
2461316.916348611
  9
$TDUUPDATE
 40
2461316.916348611
  9
$TDUPDATE
 40
2461316.916348611
  9
$ACADVER
  1
AC1032
  0
ENDSEC
  0
SECTION
  2
CLASSES
  0
CLASS
  1
SCALE
  2
AcDbScale
  3
ObjectDBX Classes
 90
1153
 91
17
280
0
281
0
  0
CLASS
  1
MLEADERSTYLE
  2
AcDbMLeaderStyle
  3
ObjectDBX Classes
 90
4095
 91
1
280
0
281
0
  0
CLASS
  1
TABLESTYLE
  2
AcDbTableStyle
  3
ObjectDBX Classes
 90
4095
 91
1
280
0
281
0
  0
CLASS
  1
DICTIONARYVAR
  2
AcDbDictionaryVar
  3
ObjectDBX Classes
 90
0
 91
6
280
0
281
0
  0
CLASS
  1
MATERIAL
  2
AcDbMaterial
  3
ObjectDBX Classes
 90
1153
 91
3
280
0
281
0
  0
CLASS
  1
LAYOUT
  2
AcDbLayout
  3
ObjectDBX Classes
 90
0
 91
2
280
0
281
0
  0
ENDSEC
  0
SECTION
  2
TABLES
  0
TABLE
  2
VPORT
  5
8
330
0
100
AcDbSymbolTable
 70
1
  0
VPORT
  5
3E
330
8
100
AcDbSymbolTableRecord
100
AcDbViewportTableRecord
  2
*Active
 70
0
 10
0
 20
0
 11
1
 21
1
 12
0
 22
0
 13
0
 23
0
 14
0.5
 24
0.5
 15
10
 25
10
 16
0
 26
0
 36
1
 17
0
 27
0
 37
0
 40
10
 41
1
 75
0
 76
1
  0
ENDTAB
  0
TABLE
  2
LTYPE
  5
5
330
0
100
AcDbSymbolTable
 70
5
  0
LTYPE
  5
2B
330
5
100
AcDbSymbolTableRecord
100
AcDbLinetypeTableRecord
  2
ByLayer
 70
0
 72
65
 73
0
 40
0
  0
LTYPE
  5
3A
330
5
100
AcDbSymbolTableRecord
100
AcDbLinetypeTableRecord
  2
ByBlock
 70
0
 72
65
 73
0
 40
0
  0
LTYPE
  5
3B
330
5
100
AcDbSymbolTableRecord
100
AcDbLinetypeTableRecord
  2
Continuous
 70
0
 72
65
 73
0
 40
0
  0
LTYPE
  5
4A
330
5
100
AcDbSymbolTableRecord
100
AcDbLinetypeTableRecord
  2
CENTER
 70
0
  3
Asse ____ _ ____ _
 72
65
 73
4
 40
50.800000000000004
 49
31.75
 74
0
 49
-6.35
 74
0
 49
6.35
 74
0
 49
-6.35
 74
0
  0
LTYPE
  5
4C
330
5
100
AcDbSymbolTableRecord
100
AcDbLinetypeTableRecord
  2
HIDDEN
 70
0
  3
Nascosta _ _ _ _
 72
65
 73
2
 40
9.524999999999999
 49
6.35
 74
0
 49
-3.175
 74
0
  0
ENDTAB
  0
TABLE
  2
LAYER
  5
2
330
0
100
AcDbSymbolTable
 70
8
  0
LAYER
  5
3C
330
2
100
AcDbSymbolTableRecord
100
AcDbLayerTableRecord
  2
0
 70
0
 62
7
  6
Continuous
290
1
370
-3
390
0
  0
LAYER
  5
48
330
2
100
AcDbSymbolTableRecord
100
AcDbLayerTableRecord
  2
CONTORNO
 70
0
 62
2
420
65535
  6
Continuous
290
1
370
-3
390
0
  0
LAYER
  5
49
330
2
100
AcDbSymbolTableRecord
100
AcDbLayerTableRecord
  2
ASSI
 70
0
 62
1
  6
CENTER
290
1
370
-3
390
0
  0
LAYER
  5
4B
330
2
100
AcDbSymbolTableRecord
100
AcDbLayerTableRecord
  2
NASCOSTE
 70
0
 62
2
  6
HIDDEN
290
1
370
-3
390
0
  0
LAYER
  5
4D
330
2
100
AcDbSymbolTableRecord
100
AcDbLayerTableRecord
  2
QUOTE
 70
0
 62
1
420
65280
  6
Continuous
290
1
370
-3
390
0
  0
LAYER
  5
4E
330
2
100
AcDbSymbolTableRecord
100
AcDbLayerTableRecord
  2
TRATTEGGI
 70
0
 62
2
420
8421504
  6
Continuous
290
1
370
-3
390
0
  0
LAYER
  5
4F
330
2
100
AcDbSymbolTableRecord
100
AcDbLayerTableRecord
  2
TESTI
 70
0
 62
7
  6
Continuous
290
1
370
-3
390
0
  0
LAYER
  5
50
330
2
100
AcDbSymbolTableRecord
100
AcDbLayerTableRecord
  2
CARTIGLIO
 70
0
 62
7
  6
Continuous
290
1
370
-3
390
0
  0
ENDTAB
  0
TABLE
  2
STYLE
  5
4
330
0
100
AcDbSymbolTable
 70
1
  0
STYLE
  5
2D
330
4
100
AcDbSymbolTableRecord
100
AcDbTextStyleTableRecord
  2
Standard
 70
0
 40
0
 41
1
 42
0
 50
0
 71
0
  0
ENDTAB
  0
TABLE
  2
VIEW
  5
6
330
0
100
AcDbSymbolTable
 70
0
  0
ENDTAB
  0
TABLE
  2
UCS
  5
7
330
0
100
AcDbSymbolTable
 70
0
  0
ENDTAB
  0
TABLE
  2
APPID
  5
9
330
0
100
AcDbSymbolTable
 70
1
  0
APPID
  5
39
330
9
100
AcDbSymbolTableRecord
100
AcDbRegAppTableRecord
  2
ACAD
 70
0
  0
ENDTAB
  0
TABLE
  2
DIMSTYLE
  5
3
330
0
100
AcDbSymbolTable
 70
2
100
AcDbDimStyleTable
  0
DIMSTYLE
105
3D
330
3
100
AcDbSymbolTableRecord
100
AcDbDimStyleTableRecord
  2
Standard
 70
0
  3
<>
  4
[]
 40
1
 41
0.18
 42
0.625
 43
3.75
 44
1.25
 45
0
 46
0
 47
0
 48
0
 49
1
 50
45
 70
0
 90
0
140
0.18
141
0.09
142
0
143
25.4
144
1
145
0
146
1
147
0.625
148
0
 71
0
 72
0
 73
0
 74
0
 75
0
 76
0
 77
1
 78
8
 79
0
170
0
171
3
172
0
173
0
174
0
175
0
176
0
177
0
178
0
179
0
271
2
272
2
273
2
274
3
275
0
276
0
277
2
278
46
279
0
280
0
281
0
282
0
283
0
284
8
285
0
286
0
287
0
288
0
289
3
290
0
340
2D
371
-2
372
-2
  0
DIMSTYLE
105
7F
330
3
100
AcDbSymbolTableRecord
100
AcDbDimStyleTableRecord
  2
ISO-25
 70
0
  3
<>
  4
[]
 40
1
 41
3
 42
0.625
 43
3.75
 44
1.25
 45
0
 46
0
 47
0
 48
0
 49
1
 50
45
 70
0
 90
0
140
3
141
0.09
142
0
143
25.4
144
1
145
0
146
1
147
0.625
148
0
 71
0
 72
0
 73
0
 74
0
 75
0
 76
0
 77
1
 78
8
 79
0
170
0
171
3
172
0
173
0
174
0
175
0
176
0
177
0
178
0
179
0
271
1
272
2
273
2
274
3
275
0
276
0
277
2
278
44
279
0
280
0
281
0
282
0
283
0
284
8
285
0
286
0
287
0
288
0
289
3
290
0
340
2D
371
-2
372
-2
  0
ENDTAB
  0
TABLE
  2
BLOCK_RECORD
  5
1
330
0
100
AcDbSymbolTable
 70
11
  0
BLOCK_RECORD
  5
40
330
1
100
AcDbSymbolTableRecord
100
AcDbBlockTableRecord
  2
*Model_Space
340
3F
 70
0
280
0
281
1
  0
BLOCK_RECORD
  5
44
330
1
100
AcDbSymbolTableRecord
100
AcDbBlockTableRecord
  2
*Paper_Space
340
43
 70
0
280
0
281
1
  0
BLOCK_RECORD
  5
58
330
1
100
AcDbSymbolTableRecord
100
AcDbBlockTableRecord
  2
FORO
 70
0
280
0
281
1
  0
BLOCK_RECORD
  5
76
330
1
100
AcDbSymbolTableRecord
100
AcDbBlockTableRecord
  2
*D128
 70
0
280
0
281
1
  0
BLOCK_RECORD
  5
81
330
1
100
AcDbSymbolTableRecord
100
AcDbBlockTableRecord
  2
*D138
 70
0
280
0
281
1
  0
BLOCK_RECORD
  5
8B
330
1
100
AcDbSymbolTableRecord
100
AcDbBlockTableRecord
  2
*D148
 70
0
280
0
281
1
  0
BLOCK_RECORD
  5
95
330
1
100
AcDbSymbolTableRecord
100
AcDbBlockTableRecord
  2
*D158
 70
0
280
0
281
1
  0
BLOCK_RECORD
  5
9F
330
1
100
AcDbSymbolTableRecord
100
AcDbBlockTableRecord
  2
*D168
 70
0
280
0
281
1
  0
BLOCK_RECORD
  5
A9
330
1
100
AcDbSymbolTableRecord
100
AcDbBlockTableRecord
  2
*D178
 70
0
280
0
281
1
  0
BLOCK_RECORD
  5
B3
330
1
100
AcDbSymbolTableRecord
100
AcDbBlockTableRecord
  2
*D186
 70
0
280
0
281
1
  0
BLOCK_RECORD
  5
BB
330
1
100
AcDbSymbolTableRecord
100
AcDbBlockTableRecord
  2
*D193
 70
0
280
0
281
1
  0
ENDTAB
  0
ENDSEC
  0
SECTION
  2
BLOCKS
  0
BLOCK
  5
41
330
40
100
AcDbEntity
  8
0
  6
ByLayer
 62
256
 48
1
 60
0
 67
0
370
-1
100
AcDbBlockBegin
  2
*Model_Space
 70
0
 10
0
 20
0
 30
0
  3
*Model_Space
  0
ENDBLK
  5
42
330
40
100
AcDbEntity
  8
0
100
AcDbBlockEnd
  0
BLOCK
  5
45
330
44
100
AcDbEntity
  8
0
  6
ByLayer
 62
256
 48
1
 60
0
 67
1
370
-1
100
AcDbBlockBegin
  2
*Paper_Space
 70
0
 10
0
 20
0
 30
0
  3
*Paper_Space
  0
ENDBLK
  5
46
330
44
100
AcDbEntity
  8
0
100
AcDbBlockEnd
  0
BLOCK
  5
59
330
58
100
AcDbEntity
  8
0
  6
ByLayer
 62
256
 48
1
 60
0
370
-1
100
AcDbBlockBegin
  2
FORO
 70
0
 10
0
 20
0
 30
0
  3
FORO
  0
CIRCLE
  5
5B
330
58
100
AcDbEntity
  8
CONTORNO
  6
ByLayer
 62
256
 48
1
 60
0
370
-1
100
AcDbCircle
 10
0
 20
0
 30
0
 39
0
 40
4
210
0
220
0
230
1
  0
ENDBLK
  5
5A
330
58
100
AcDbEntity
  8
0
100
AcDbBlockEnd
  0
BLOCK
  5
77
330
76
100
AcDbEntity
  8
0
  6
ByLayer
 62
256
 48
1
 60
0
370
-1
100
AcDbBlockBegin
  2
*D128
 70
0
 10
0
 20
0
 30
0
  3
*D128
  0
LINE
  5
79
330
76
100
AcDbEntity
  8
QUOTE
  6
ByLayer
 62
0
 48
1
 60
0
370
-1
100
AcDbLine
 10
30
 20
59.375
 30
0
 11
30
 21
46.75
 31
0
 39
0
210
0
220
0
230
1
  0
LINE
  5
7A
330
76
100
AcDbEntity
  8
QUOTE
  6
ByLayer
 62
0
 48
1
 60
0
370
-1
100
AcDbLine
 10
150
 20
59.375
 30
0
 11
150
 21
46.75
 31
0
 39
0
210
0
220
0
230
1
  0
LINE
  5
7B
330
76
100
AcDbEntity
  8
QUOTE
  6
ByLayer
 62
0
 48
1
 60
0
370
-1
100
AcDbLine
 10
30
 20
48
 30
0
 11
150
 21
48
 31
0
 39
0
210
0
220
0
230
1
  0
SOLID
  5
7C
330
76
100
AcDbEntity
  8
QUOTE
  6
ByLayer
 62
0
 48
1
 60
0
370
-1
100
AcDbTrace
 10
30
 20
48
 30
0
 11
33
 21
47.5
 31
0
 12
33
 22
48.5
 32
0
 13
33
 23
48.5
 33
0
 39
0
210
0
220
0
230
1
  0
SOLID
  5
7D
330
76
100
AcDbEntity
  8
QUOTE
  6
ByLayer
 62
0
 48
1
 60
0
370
-1
100
AcDbTrace
 10
150
 20
48
 30
0
 11
147
 21
48.5
 31
0
 12
147
 22
47.5
 32
0
 13
147
 23
47.5
 33
0
 39
0
210
0
220
0
230
1
  0
TEXT
  5
7E
330
76
100
AcDbEntity
  8
QUOTE
  6
ByLayer
 62
0
 48
1
 60
0
370
-1
100
AcDbText
  1
120
 10
90
 20
48.625
 30
0
 40
3
  7
Standard
 11
90
 21
48.625
 31
0
210
0
220
0
230
1
 72
1
100
AcDbText
 73
1
  0
ENDBLK
  5
78
330
76
100
AcDbEntity
  8
0
100
AcDbBlockEnd
  0
BLOCK
  5
82
330
81
100
AcDbEntity
  8
0
  6
ByLayer
 62
256
 48
1
 60
0
370
-1
100
AcDbBlockBegin
  2
*D138
 70
0
 10
0
 20
0
 30
0
  3
*D138
  0
LINE
  5
84
330
81
100
AcDbEntity
  8
QUOTE
  6
ByLayer
 62
0
 48
1
 60
0
370
-1
100
AcDbLine
 10
150.625
 20
60
 30
0
 11
166.25
 21
60
 31
0
 39
0
210
0
220
0
230
1
  0
LINE
  5
85
330
81
100
AcDbEntity
  8
QUOTE
  6
ByLayer
 62
0
 48
1
 60
0
370
-1
100
AcDbLine
 10
150.625
 20
140
 30
0
 11
166.25
 21
140
 31
0
 39
0
210
0
220
0
230
1
  0
LINE
  5
86
330
81
100
AcDbEntity
  8
QUOTE
  6
ByLayer
 62
0
 48
1
 60
0
370
-1
100
AcDbLine
 10
165
 20
60
 30
0
 11
165
 21
140
 31
0
 39
0
210
0
220
0
230
1
  0
SOLID
  5
87
330
81
100
AcDbEntity
  8
QUOTE
  6
ByLayer
 62
0
 48
1
 60
0
370
-1
100
AcDbTrace
 10
165
 20
60
 30
0
 11
165.5
 21
63
 31
0
 12
164.5
 22
63
 32
0
 13
164.5
 23
63
 33
0
 39
0
210
0
220
0
230
1
  0
SOLID
  5
88
330
81
100
AcDbEntity
  8
QUOTE
  6
ByLayer
 62
0
 48
1
 60
0
370
-1
100
AcDbTrace
 10
165
 20
140
 30
0
 11
164.5
 21
137
 31
0
 12
165.5
 22
137
 32
0
 13
165.5
 23
137
 33
0
 39
0
210
0
220
0
230
1
  0
TEXT
  5
89
330
81
100
AcDbEntity
  8
QUOTE
  6
ByLayer
 62
0
 48
1
 60
0
370
-1
100
AcDbText
  1
80
 10
164.375
 20
100
 30
0
 40
3
 50
90
  7
Standard
 11
164.375
 21
100
 31
0
210
0
220
0
230
1
 72
1
100
AcDbText
 73
1
  0
ENDBLK
  5
83
330
81
100
AcDbEntity
  8
0
100
AcDbBlockEnd
  0
BLOCK
  5
8C
330
8B
100
AcDbEntity
  8
0
  6
ByLayer
 62
256
 48
1
 60
0
370
-1
100
AcDbBlockBegin
  2
*D148
 70
0
 10
0
 20
0
 30
0
  3
*D148
  0
LINE
  5
8E
330
8B
100
AcDbEntity
  8
QUOTE
  6
ByLayer
 62
0
 48
1
 60
0
370
-1
100
AcDbLine
 10
45
 20
74.375
 30
0
 11
45
 21
66.75
 31
0
 39
0
210
0
220
0
230
1
  0
LINE
  5
8F
330
8B
100
AcDbEntity
  8
QUOTE
  6
ByLayer
 62
0
 48
1
 60
0
370
-1
100
AcDbLine
 10
135
 20
74.375
 30
0
 11
135
 21
66.75
 31
0
 39
0
210
0
220
0
230
1
  0
LINE
  5
90
330
8B
100
AcDbEntity
  8
QUOTE
  6
ByLayer
 62
0
 48
1
 60
0
370
-1
100
AcDbLine
 10
45
 20
68
 30
0
 11
135
 21
68
 31
0
 39
0
210
0
220
0
230
1
  0
SOLID
  5
91
330
8B
100
AcDbEntity
  8
QUOTE
  6
ByLayer
 62
0
 48
1
 60
0
370
-1
100
AcDbTrace
 10
45
 20
68
 30
0
 11
48
 21
67.5
 31
0
 12
48
 22
68.5
 32
0
 13
48
 23
68.5
 33
0
 39
0
210
0
220
0
230
1
  0
SOLID
  5
92
330
8B
100
AcDbEntity
  8
QUOTE
  6
ByLayer
 62
0
 48
1
 60
0
370
-1
100
AcDbTrace
 10
135
 20
68
 30
0
 11
132
 21
68.5
 31
0
 12
132
 22
67.5
 32
0
 13
132
 23
67.5
 33
0
 39
0
210
0
220
0
230
1
  0
TEXT
  5
93
330
8B
100
AcDbEntity
  8
QUOTE
  6
ByLayer
 62
0
 48
1
 60
0
370
-1
100
AcDbText
  1
90
 10
90
 20
68.625
 30
0
 40
3
  7
Standard
 11
90
 21
68.625
 31
0
210
0
220
0
230
1
 72
1
100
AcDbText
 73
1
  0
ENDBLK
  5
8D
330
8B
100
AcDbEntity
  8
0
100
AcDbBlockEnd
  0
BLOCK
  5
96
330
95
100
AcDbEntity
  8
0
  6
ByLayer
 62
256
 48
1
 60
0
370
-1
100
AcDbBlockBegin
  2
*D158
 70
0
 10
0
 20
0
 30
0
  3
*D158
  0
LINE
  5
98
330
95
100
AcDbEntity
  8
QUOTE
  6
ByLayer
 62
0
 48
1
 60
0
370
-1
100
AcDbLine
 10
44.375
 20
75
 30
0
 11
20.75
 21
75
 31
0
 39
0
210
0
220
0
230
1
  0
LINE
  5
99
330
95
100
AcDbEntity
  8
QUOTE
  6
ByLayer
 62
0
 48
1
 60
0
370
-1
100
AcDbLine
 10
44.375
 20
125
 30
0
 11
20.75
 21
125
 31
0
 39
0
210
0
220
0
230
1
  0
LINE
  5
9A
330
95
100
AcDbEntity
  8
QUOTE
  6
ByLayer
 62
0
 48
1
 60
0
370
-1
100
AcDbLine
 10
22
 20
75
 30
0
 11
22
 21
125
 31
0
 39
0
210
0
220
0
230
1
  0
SOLID
  5
9B
330
95
100
AcDbEntity
  8
QUOTE
  6
ByLayer
 62
0
 48
1
 60
0
370
-1
100
AcDbTrace
 10
22
 20
75
 30
0
 11
22.5
 21
78
 31
0
 12
21.5
 22
78
 32
0
 13
21.5
 23
78
 33
0
 39
0
210
0
220
0
230
1
  0
SOLID
  5
9C
330
95
100
AcDbEntity
  8
QUOTE
  6
ByLayer
 62
0
 48
1
 60
0
370
-1
100
AcDbTrace
 10
22
 20
125
 30
0
 11
21.5
 21
122
 31
0
 12
22.5
 22
122
 32
0
 13
22.5
 23
122
 33
0
 39
0
210
0
220
0
230
1
  0
TEXT
  5
9D
330
95
100
AcDbEntity
  8
QUOTE
  6
ByLayer
 62
0
 48
1
 60
0
370
-1
100
AcDbText
  1
50
 10
21.375
 20
100
 30
0
 40
3
 50
90
  7
Standard
 11
21.375
 21
100
 31
0
210
0
220
0
230
1
 72
1
100
AcDbText
 73
1
  0
ENDBLK
  5
97
330
95
100
AcDbEntity
  8
0
100
AcDbBlockEnd
  0
BLOCK
  5
A0
330
9F
100
AcDbEntity
  8
0
  6
ByLayer
 62
256
 48
1
 60
0
370
-1
100
AcDbBlockBegin
  2
*D168
 70
0
 10
0
 20
0
 30
0
  3
*D168
  0
LINE
  5
A2
330
9F
100
AcDbEntity
  8
QUOTE
  6
ByLayer
 62
0
 48
1
 60
0
370
-1
100
AcDbLine
 10
200
 20
140.625
 30
0
 11
200
 21
151.25
 31
0
 39
0
210
0
220
0
230
1
  0
LINE
  5
A3
330
9F
100
AcDbEntity
  8
QUOTE
  6
ByLayer
 62
0
 48
1
 60
0
370
-1
100
AcDbLine
 10
215
 20
140.625
 30
0
 11
215
 21
151.25
 31
0
 39
0
210
0
220
0
230
1
  0
LINE
  5
A4
330
9F
100
AcDbEntity
  8
QUOTE
  6
ByLayer
 62
0
 48
1
 60
0
370
-1
100
AcDbLine
 10
200
 20
150
 30
0
 11
215
 21
150
 31
0
 39
0
210
0
220
0
230
1
  0
SOLID
  5
A5
330
9F
100
AcDbEntity
  8
QUOTE
  6
ByLayer
 62
0
 48
1
 60
0
370
-1
100
AcDbTrace
 10
200
 20
150
 30
0
 11
203
 21
149.5
 31
0
 12
203
 22
150.5
 32
0
 13
203
 23
150.5
 33
0
 39
0
210
0
220
0
230
1
  0
SOLID
  5
A6
330
9F
100
AcDbEntity
  8
QUOTE
  6
ByLayer
 62
0
 48
1
 60
0
370
-1
100
AcDbTrace
 10
215
 20
150
 30
0
 11
212
 21
150.5
 31
0
 12
212
 22
149.5
 32
0
 13
212
 23
149.5
 33
0
 39
0
210
0
220
0
230
1
  0
TEXT
  5
A7
330
9F
100
AcDbEntity
  8
QUOTE
  6
ByLayer
 62
0
 48
1
 60
0
370
-1
100
AcDbText
  1
15
 10
207.5
 20
150.625
 30
0
 40
3
  7
Standard
 11
207.5
 21
150.625
 31
0
210
0
220
0
230
1
 72
1
100
AcDbText
 73
1
  0
ENDBLK
  5
A1
330
9F
100
AcDbEntity
  8
0
100
AcDbBlockEnd
  0
BLOCK
  5
AA
330
A9
100
AcDbEntity
  8
0
  6
ByLayer
 62
256
 48
1
 60
0
370
-1
100
AcDbBlockBegin
  2
*D178
 70
0
 10
0
 20
0
 30
0
  3
*D178
  0
LINE
  5
AC
330
A9
100
AcDbEntity
  8
QUOTE
  6
ByLayer
 62
0
 48
1
 60
0
370
-1
100
AcDbLine
 10
199.375
 20
80
 30
0
 11
188.75
 21
80
 31
0
 39
0
210
0
220
0
230
1
  0
LINE
  5
AD
330
A9
100
AcDbEntity
  8
QUOTE
  6
ByLayer
 62
0
 48
1
 60
0
370
-1
100
AcDbLine
 10
199.375
 20
120
 30
0
 11
188.75
 21
120
 31
0
 39
0
210
0
220
0
230
1
  0
LINE
  5
AE
330
A9
100
AcDbEntity
  8
QUOTE
  6
ByLayer
 62
0
 48
1
 60
0
370
-1
100
AcDbLine
 10
190
 20
80
 30
0
 11
190
 21
120
 31
0
 39
0
210
0
220
0
230
1
  0
SOLID
  5
AF
330
A9
100
AcDbEntity
  8
QUOTE
  6
ByLayer
 62
0
 48
1
 60
0
370
-1
100
AcDbTrace
 10
190
 20
80
 30
0
 11
190.5
 21
83
 31
0
 12
189.5
 22
83
 32
0
 13
189.5
 23
83
 33
0
 39
0
210
0
220
0
230
1
  0
SOLID
  5
B0
330
A9
100
AcDbEntity
  8
QUOTE
  6
ByLayer
 62
0
 48
1
 60
0
370
-1
100
AcDbTrace
 10
190
 20
120
 30
0
 11
189.5
 21
117
 31
0
 12
190.5
 22
117
 32
0
 13
190.5
 23
117
 33
0
 39
0
210
0
220
0
230
1
  0
TEXT
  5
B1
330
A9
100
AcDbEntity
  8
QUOTE
  6
ByLayer
 62
0
 48
1
 60
0
370
-1
100
AcDbText
  1
Ø40
 10
189.375
 20
100
 30
0
 40
3
 50
90
  7
Standard
 11
189.375
 21
100
 31
0
210
0
220
0
230
1
 72
1
100
AcDbText
 73
1
  0
ENDBLK
  5
AB
330
A9
100
AcDbEntity
  8
0
100
AcDbBlockEnd
  0
BLOCK
  5
B4
330
B3
100
AcDbEntity
  8
0
  6
ByLayer
 62
256
 48
1
 60
0
370
-1
100
AcDbBlockBegin
  2
*D186
 70
0
 10
0
 20
0
 30
0
  3
*D186
  0
LINE
  5
B6
330
B3
100
AcDbEntity
  8
QUOTE
  6
ByLayer
 62
0
 48
1
 60
0
370
-1
100
AcDbLine
 10
104.86588292494332
 20
113.37929463244899
 30
0
 11
75.13411707505668
 21
86.62070536755101
 31
0
 39
0
210
0
220
0
230
1
  0
SOLID
  5
B7
330
B3
100
AcDbEntity
  8
QUOTE
  6
ByLayer
 62
0
 48
1
 60
0
370
-1
100
AcDbTrace
 10
75.13411707505668
 20
86.62070536755101
 30
0
 11
77.6984818796094
 21
88.25595248929477
 31
0
 12
77.02951714798695
 22
88.99924663554194
 32
0
 13
77.02951714798695
 23
88.99924663554194
 33
0
 39
0
210
0
220
0
230
1
  0
SOLID
  5
B8
330
B3
100
AcDbEntity
  8
QUOTE
  6
ByLayer
 62
0
 48
1
 60
0
370
-1
100
AcDbTrace
 10
104.86588292494332
 20
113.37929463244899
 30
0
 11
102.3015181203906
 21
111.74404751070523
 31
0
 12
102.97048285201305
 22
111.00075336445806
 32
0
 13
102.97048285201305
 23
111.00075336445806
 33
0
 39
0
210
0
220
0
230
1
  0
TEXT
  5
B9
330
B3
100
AcDbEntity
  8
QUOTE
  6
ByLayer
 62
0
 48
1
 60
0
370
-1
100
AcDbText
  1
Ø40
 10
89.58189704273597
 20
100.46455884140448
 30
0
 40
3
 50
41.98721249581665
  7
Standard
 11
89.58189704273597
 21
100.46455884140448
 31
0
210
0
220
0
230
1
 72
1
100
AcDbText
 73
1
  0
ENDBLK
  5
B5
330
B3
100
AcDbEntity
  8
0
100
AcDbBlockEnd
  0
BLOCK
  5
BC
330
BB
100
AcDbEntity
  8
0
  6
ByLayer
 62
256
 48
1
 60
0
370
-1
100
AcDbBlockBegin
  2
*D193
 70
0
 10
0
 20
0
 30
0
  3
*D193
  0
LINE
  5
BE
330
BB
100
AcDbEntity
  8
QUOTE
  6
ByLayer
 62
0
 48
1
 60
0
370
-1
100
AcDbLine
 10
32.34314575050762
 20
62.34314575050762
 30
0
 11
20
 21
50
 31
0
 39
0
210
0
220
0
230
1
  0
SOLID
  5
BF
330
BB
100
AcDbEntity
  8
QUOTE
  6
ByLayer
 62
0
 48
1
 60
0
370
-1
100
AcDbTrace
 10
32.34314575050762
 20
62.34314575050762
 30
0
 11
29.8682720163547
 21
60.57537879754125
 31
0
 12
30.575378797541248
 22
59.868272016354695
 32
0
 13
30.575378797541248
 23
59.868272016354695
 33
0
 39
0
210
0
220
0
230
1
  0
TEXT
  5
C0
330
BB
100
AcDbEntity
  8
QUOTE
  6
ByLayer
 62
0
 48
1
 60
0
370
-1
100
AcDbText
  1
R8
 10
24.668970965232393
 20
55.55285444171558
 30
0
 40
3
 50
45
  7
Standard
 11
24.668970965232393
 21
55.55285444171558
 31
0
210
0
220
0
230
1
 72
1
100
AcDbText
 73
1
  0
ENDBLK
  5
BD
330
BB
100
AcDbEntity
  8
0
100
AcDbBlockEnd
  0
ENDSEC
  0
SECTION
  2
ENTITIES
  0
LWPOLYLINE
  5
51
330
40
100
AcDbEntity
  8
CARTIGLIO
  6
ByLayer
 62
256
 48
1
 60
0
 67
0
370
-1
100
AcDbPolyline
 90
4
 70
1
 38
0
 39
0
 10
0
 20
0
 40
0
 41
0
 42
0
 10
297
 20
0
 40
0
 41
0
 42
0
 10
297
 20
210
 40
0
 41
0
 42
0
 10
0
 20
210
 40
0
 41
0
 42
0
210
0
220
0
230
1
  0
LWPOLYLINE
  5
52
330
40
100
AcDbEntity
  8
CARTIGLIO
  6
ByLayer
 62
256
 48
1
 60
0
 67
0
370
-1
100
AcDbPolyline
 90
4
 70
1
 38
0
 39
0
 10
10
 20
10
 40
0
 41
0
 42
0
 10
287
 20
10
 40
0
 41
0
 42
0
 10
287
 20
200
 40
0
 41
0
 42
0
 10
10
 20
200
 40
0
 41
0
 42
0
210
0
220
0
230
1
  0
LWPOLYLINE
  5
53
330
40
100
AcDbEntity
  8
CARTIGLIO
  6
ByLayer
 62
256
 48
1
 60
0
 67
0
370
-1
100
AcDbPolyline
 90
4
 70
1
 38
0
 39
0
 10
187
 20
10
 40
0
 41
0
 42
0
 10
287
 20
10
 40
0
 41
0
 42
0
 10
287
 20
45
 40
0
 41
0
 42
0
 10
187
 20
45
 40
0
 41
0
 42
0
210
0
220
0
230
1
  0
LINE
  5
54
330
40
100
AcDbEntity
  8
CARTIGLIO
  6
ByLayer
 62
256
 48
1
 60
0
 67
0
370
-1
100
AcDbLine
 10
187
 20
25
 30
0
 11
287
 21
25
 31
0
 39
0
210
0
220
0
230
1
  0
LINE
  5
55
330
40
100
AcDbEntity
  8
CARTIGLIO
  6
ByLayer
 62
256
 48
1
 60
0
 67
0
370
-1
100
AcDbLine
 10
237
 20
10
 30
0
 11
237
 21
25
 31
0
 39
0
210
0
220
0
230
1
  0
LWPOLYLINE
  5
56
330
40
100
AcDbEntity
  8
CONTORNO
  6
ByLayer
 62
256
 48
1
 60
0
 67
0
370
-1
100
AcDbPolyline
 90
8
 70
1
 38
0
 39
0
 10
30
 20
68
 40
0
 41
0
 42
0.41421356237309503
 10
38
 20
60
 40
0
 41
0
 42
0
 10
142
 20
60
 40
0
 41
0
 42
0.41421356237309503
 10
150
 20
68
 40
0
 41
0
 42
0
 10
150
 20
132
 40
0
 41
0
 42
0.41421356237309503
 10
142
 20
140
 40
0
 41
0
 42
0
 10
38
 20
140
 40
0
 41
0
 42
0.41421356237309503
 10
30
 20
132
 40
0
 41
0
 42
0
210
0
220
0
230
1
  0
CIRCLE
  5
57
330
40
100
AcDbEntity
  8
CONTORNO
  6
ByLayer
 62
256
 48
1
 60
0
 67
0
370
-1
100
AcDbCircle
 10
90
 20
100
 30
0
 39
0
 40
20
210
0
220
0
230
1
  0
INSERT
  5
5C
330
40
100
AcDbEntity
  8
CONTORNO
  6
ByLayer
 62
256
 48
1
 60
0
 67
0
370
-1
100
AcDbBlockReference
  2
FORO
 10
45
 20
75
 30
0
 41
1
 42
1
 43
1
 50
0
 70
1
 71
1
 44
0
 45
0
210
0
220
0
230
1
  0
INSERT
  5
5D
330
40
100
AcDbEntity
  8
CONTORNO
  6
ByLayer
 62
256
 48
1
 60
0
 67
0
370
-1
100
AcDbBlockReference
  2
FORO
 10
135
 20
75
 30
0
 41
1
 42
1
 43
1
 50
0
 70
1
 71
1
 44
0
 45
0
210
0
220
0
230
1
  0
INSERT
  5
5E
330
40
100
AcDbEntity
  8
CONTORNO
  6
ByLayer
 62
256
 48
1
 60
0
 67
0
370
-1
100
AcDbBlockReference
  2
FORO
 10
45
 20
125
 30
0
 41
1
 42
1
 43
1
 50
0
 70
1
 71
1
 44
0
 45
0
210
0
220
0
230
1
  0
INSERT
  5
5F
330
40
100
AcDbEntity
  8
CONTORNO
  6
ByLayer
 62
256
 48
1
 60
0
 67
0
370
-1
100
AcDbBlockReference
  2
FORO
 10
135
 20
125
 30
0
 41
1
 42
1
 43
1
 50
0
 70
1
 71
1
 44
0
 45
0
210
0
220
0
230
1
  0
LWPOLYLINE
  5
60
330
40
100
AcDbEntity
  8
CONTORNO
  6
ByLayer
 62
256
 48
1
 60
0
 67
0
370
-1
100
AcDbPolyline
 90
4
 70
1
 38
0
 39
0
 10
30
 20
158
 40
0
 41
0
 42
0
 10
150
 20
158
 40
0
 41
0
 42
0
 10
150
 20
173
 40
0
 41
0
 42
0
 10
30
 20
173
 40
0
 41
0
 42
0
210
0
220
0
230
1
  0
LINE
  5
61
330
40
100
AcDbEntity
  8
NASCOSTE
  6
ByLayer
 62
256
 48
1
 60
0
 67
0
370
-1
100
AcDbLine
 10
41
 20
158
 30
0
 11
41
 21
173
 31
0
 39
0
210
0
220
0
230
1
  0
LINE
  5
62
330
40
100
AcDbEntity
  8
NASCOSTE
  6
ByLayer
 62
256
 48
1
 60
0
 67
0
370
-1
100
AcDbLine
 10
49
 20
158
 30
0
 11
49
 21
173
 31
0
 39
0
210
0
220
0
230
1
  0
LINE
  5
63
330
40
100
AcDbEntity
  8
NASCOSTE
  6
ByLayer
 62
256
 48
1
 60
0
 67
0
370
-1
100
AcDbLine
 10
70
 20
158
 30
0
 11
70
 21
173
 31
0
 39
0
210
0
220
0
230
1
  0
LINE
  5
64
330
40
100
AcDbEntity
  8
NASCOSTE
  6
ByLayer
 62
256
 48
1
 60
0
 67
0
370
-1
100
AcDbLine
 10
110
 20
158
 30
0
 11
110
 21
173
 31
0
 39
0
210
0
220
0
230
1
  0
LINE
  5
65
330
40
100
AcDbEntity
  8
NASCOSTE
  6
ByLayer
 62
256
 48
1
 60
0
 67
0
370
-1
100
AcDbLine
 10
131
 20
158
 30
0
 11
131
 21
173
 31
0
 39
0
210
0
220
0
230
1
  0
LINE
  5
66
330
40
100
AcDbEntity
  8
NASCOSTE
  6
ByLayer
 62
256
 48
1
 60
0
 67
0
370
-1
100
AcDbLine
 10
139
 20
158
 30
0
 11
139
 21
173
 31
0
 39
0
210
0
220
0
230
1
  0
LWPOLYLINE
  5
67
330
40
100
AcDbEntity
  8
CONTORNO
  6
ByLayer
 62
256
 48
1
 60
0
 67
0
370
-1
100
AcDbPolyline
 90
4
 70
1
 38
0
 39
0
 10
200
 20
60
 40
0
 41
0
 42
0
 10
215
 20
60
 40
0
 41
0
 42
0
 10
215
 20
80
 40
0
 41
0
 42
0
 10
200
 20
80
 40
0
 41
0
 42
0
210
0
220
0
230
1
  0
LWPOLYLINE
  5
68
330
40
100
AcDbEntity
  8
CONTORNO
  6
ByLayer
 62
256
 48
1
 60
0
 67
0
370
-1
100
AcDbPolyline
 90
4
 70
1
 38
0
 39
0
 10
200
 20
120
 40
0
 41
0
 42
0
 10
215
 20
120
 40
0
 41
0
 42
0
 10
215
 20
140
 40
0
 41
0
 42
0
 10
200
 20
140
 40
0
 41
0
 42
0
210
0
220
0
230
1
  0
HATCH
  5
69
330
40
100
AcDbEntity
  8
TRATTEGGI
  6
ByLayer
 62
256
 48
1
 60
0
 67
0
370
-1
100
AcDbHatch
 10
0
 20
0
 30
0
210
0
220
0
230
1
  2
ANSI31
 70
0
 71
0
 91
1
 92
3
 72
0
 73
1
 93
4
 10
200
 20
60
 10
215
 20
60
 10
215
 20
80
 10
200
 20
80
 97
0
 75
0
 76
1
 52
0
 41
0.5
 77
0
 78
1
 53
45
 43
0
 44
0
 45
-1.122532015133644
 46
1.1225320151336442
 79
0
 47
0
 98
0
  0
HATCH
  5
6A
330
40
100
AcDbEntity
  8
TRATTEGGI
  6
ByLayer
 62
256
 48
1
 60
0
 67
0
370
-1
100
AcDbHatch
 10
0
 20
0
 30
0
210
0
220
0
230
1
  2
ANSI31
 70
0
 71
0
 91
1
 92
3
 72
0
 73
1
 93
4
 10
200
 20
120
 10
215
 20
120
 10
215
 20
140
 10
200
 20
140
 97
0
 75
0
 76
1
 52
0
 41
0.5
 77
0
 78
1
 53
45
 43
0
 44
0
 45
-1.122532015133644
 46
1.1225320151336442
 79
0
 47
0
 98
0
  0
LINE
  5
6B
330
40
100
AcDbEntity
  8
ASSI
  6
ByLayer
 62
256
 48
1
 60
0
 67
0
370
-1
100
AcDbLine
 10
22
 20
100
 30
0
 11
158
 21
100
 31
0
 39
0
210
0
220
0
230
1
  0
LINE
  5
6C
330
40
100
AcDbEntity
  8
ASSI
  6
ByLayer
 62
256
 48
1
 60
0
 67
0
370
-1
100
AcDbLine
 10
90
 20
52
 30
0
 11
90
 21
180
 31
0
 39
0
210
0
220
0
230
1
  0
LINE
  5
6D
330
40
100
AcDbEntity
  8
ASSI
  6
ByLayer
 62
256
 48
1
 60
0
 67
0
370
-1
100
AcDbLine
 10
194
 20
100
 30
0
 11
221
 21
100
 31
0
 39
0
210
0
220
0
230
1
  0
LINE
  5
6E
330
40
100
AcDbEntity
  8
ASSI
  6
ByLayer
 62
256
 48
1
 60
0
 67
0
370
-1
100
AcDbLine
 10
38
 20
75
 30
0
 11
52
 21
75
 31
0
 39
0
210
0
220
0
230
1
  0
LINE
  5
6F
330
40
100
AcDbEntity
  8
ASSI
  6
ByLayer
 62
256
 48
1
 60
0
 67
0
370
-1
100
AcDbLine
 10
45
 20
68
 30
0
 11
45
 21
82
 31
0
 39
0
210
0
220
0
230
1
  0
LINE
  5
70
330
40
100
AcDbEntity
  8
ASSI
  6
ByLayer
 62
256
 48
1
 60
0
 67
0
370
-1
100
AcDbLine
 10
128
 20
75
 30
0
 11
142
 21
75
 31
0
 39
0
210
0
220
0
230
1
  0
LINE
  5
71
330
40
100
AcDbEntity
  8
ASSI
  6
ByLayer
 62
256
 48
1
 60
0
 67
0
370
-1
100
AcDbLine
 10
135
 20
68
 30
0
 11
135
 21
82
 31
0
 39
0
210
0
220
0
230
1
  0
LINE
  5
72
330
40
100
AcDbEntity
  8
ASSI
  6
ByLayer
 62
256
 48
1
 60
0
 67
0
370
-1
100
AcDbLine
 10
38
 20
125
 30
0
 11
52
 21
125
 31
0
 39
0
210
0
220
0
230
1
  0
LINE
  5
73
330
40
100
AcDbEntity
  8
ASSI
  6
ByLayer
 62
256
 48
1
 60
0
 67
0
370
-1
100
AcDbLine
 10
45
 20
118
 30
0
 11
45
 21
132
 31
0
 39
0
210
0
220
0
230
1
  0
LINE
  5
74
330
40
100
AcDbEntity
  8
ASSI
  6
ByLayer
 62
256
 48
1
 60
0
 67
0
370
-1
100
AcDbLine
 10
128
 20
125
 30
0
 11
142
 21
125
 31
0
 39
0
210
0
220
0
230
1
  0
LINE
  5
75
330
40
100
AcDbEntity
  8
ASSI
  6
ByLayer
 62
256
 48
1
 60
0
 67
0
370
-1
100
AcDbLine
 10
135
 20
118
 30
0
 11
135
 21
132
 31
0
 39
0
210
0
220
0
230
1
  0
DIMENSION
  5
80
330
40
100
AcDbEntity
  8
QUOTE
  6
ByLayer
 62
256
 48
1
 60
0
 67
0
370
-1
100
AcDbDimension
  2
*D128
 10
150
 20
48
 30
0
 11
90
 21
48.625
 31
0
 12
0
 22
0
 32
0
 53
0
 70
32
 71
0
 72
0
 41
0
210
0
220
0
230
1
  3
ISO-25
100
AcDbAlignedDimension
 13
30
 23
60
 33
0
 14
150
 24
60
 34
0
 50
0
100
AcDbRotatedDimension
  0
DIMENSION
  5
8A
330
40
100
AcDbEntity
  8
QUOTE
  6
ByLayer
 62
256
 48
1
 60
0
 67
0
370
-1
100
AcDbDimension
  2
*D138
 10
165
 20
140
 30
0
 11
164.375
 21
100
 31
0
 12
0
 22
0
 32
0
 53
0
 70
32
 71
0
 72
0
 41
0
210
0
220
0
230
1
  3
ISO-25
100
AcDbAlignedDimension
 13
150
 23
60
 33
0
 14
150
 24
140
 34
0
 50
90
100
AcDbRotatedDimension
  0
DIMENSION
  5
94
330
40
100
AcDbEntity
  8
QUOTE
  6
ByLayer
 62
256
 48
1
 60
0
 67
0
370
-1
100
AcDbDimension
  2
*D148
 10
135
 20
68
 30
0
 11
90
 21
68.625
 31
0
 12
0
 22
0
 32
0
 53
0
 70
32
 71
0
 72
0
 41
0
210
0
220
0
230
1
  3
ISO-25
100
AcDbAlignedDimension
 13
45
 23
75
 33
0
 14
135
 24
75
 34
0
 50
0
100
AcDbRotatedDimension
  0
DIMENSION
  5
9E
330
40
100
AcDbEntity
  8
QUOTE
  6
ByLayer
 62
256
 48
1
 60
0
 67
0
370
-1
100
AcDbDimension
  2
*D158
 10
22
 20
125
 30
0
 11
21.375
 21
100
 31
0
 12
0
 22
0
 32
0
 53
0
 70
32
 71
0
 72
0
 41
0
210
0
220
0
230
1
  3
ISO-25
100
AcDbAlignedDimension
 13
45
 23
75
 33
0
 14
45
 24
125
 34
0
 50
90
100
AcDbRotatedDimension
  0
DIMENSION
  5
A8
330
40
100
AcDbEntity
  8
QUOTE
  6
ByLayer
 62
256
 48
1
 60
0
 67
0
370
-1
100
AcDbDimension
  2
*D168
 10
215
 20
150
 30
0
 11
207.5
 21
150.625
 31
0
 12
0
 22
0
 32
0
 53
0
 70
32
 71
0
 72
0
 41
0
210
0
220
0
230
1
  3
ISO-25
100
AcDbAlignedDimension
 13
200
 23
140
 33
0
 14
215
 24
140
 34
0
 50
0
100
AcDbRotatedDimension
  0
DIMENSION
  5
B2
330
40
100
AcDbEntity
  8
QUOTE
  6
ByLayer
 62
256
 48
1
 60
0
 67
0
370
-1
100
AcDbDimension
  2
*D178
 10
190
 20
120
 30
0
 11
189.375
 21
100
 31
0
 12
0
 22
0
 32
0
 53
0
 70
32
 71
0
 72
0
 41
0
  1
Ø<>
210
0
220
0
230
1
  3
ISO-25
100
AcDbAlignedDimension
 13
200
 23
80
 33
0
 14
200
 24
120
 34
0
 50
90
100
AcDbRotatedDimension
  0
DIMENSION
  5
BA
330
40
100
AcDbEntity
  8
QUOTE
  6
ByLayer
 62
256
 48
1
 60
0
 67
0
370
-1
100
AcDbDimension
  2
*D186
 10
104.86588292494332
 20
113.37929463244899
 30
0
 11
89.58189704273597
 21
100.46455884140448
 31
0
 12
0
 22
0
 32
0
 53
0
 70
35
 71
0
 72
0
 41
0
210
0
220
0
230
1
  3
ISO-25
100
AcDbDiametricDimension
 15
75.13411707505668
 25
86.62070536755101
 35
0
 40
0
  0
DIMENSION
  5
C1
330
40
100
AcDbEntity
  8
QUOTE
  6
ByLayer
 62
256
 48
1
 60
0
 67
0
370
-1
100
AcDbDimension
  2
*D193
 10
38
 20
68
 30
0
 11
24.668970965232393
 21
55.55285444171558
 31
0
 12
0
 22
0
 32
0
 53
0
 70
36
 71
0
 72
0
 41
0
210
0
220
0
230
1
  3
ISO-25
100
AcDbRadialDimension
 15
32.34314575050762
 25
62.34314575050762
 35
0
 40
17.455844122715707
  0
TEXT
  5
C2
330
40
100
AcDbEntity
  8
TESTI
  6
ByLayer
 62
256
 48
1
 60
0
 67
0
370
-1
100
AcDbText
  1
SEZIONE A-A
 10
207.5
 20
46
 30
0
 40
3.5
  7
Standard
 11
207.5
 21
46
 31
0
210
0
220
0
230
1
 72
1
100
AcDbText
  0
TEXT
  5
C3
330
40
100
AcDbEntity
  8
TESTI
  6
ByLayer
 62
256
 48
1
 60
0
 67
0
370
-1
100
AcDbText
  1
4 fori Ø8 passanti
 10
30
 20
30
 30
0
 40
3.5
  7
Standard
 11
0
 21
0
 31
0
210
0
220
0
230
1
100
AcDbText
  0
TEXT
  5
C4
330
40
100
AcDbEntity
  8
TESTI
  6
ByLayer
 62
256
 48
1
 60
0
 67
0
370
-1
100
AcDbText
  1
Tolleranze generali ISO 2768-m
 10
30
 20
24.166666666666664
 30
0
 40
3.5
  7
Standard
 11
0
 21
0
 31
0
210
0
220
0
230
1
100
AcDbText
  0
TEXT
  5
C5
330
40
100
AcDbEntity
  8
CARTIGLIO
  6
ByLayer
 62
256
 48
1
 60
0
 67
0
370
-1
100
AcDbText
  1
FLANGIA 120x80
 10
192
 20
32
 30
0
 40
6
  7
Standard
 11
0
 21
0
 31
0
210
0
220
0
230
1
100
AcDbText
  0
TEXT
  5
C6
330
40
100
AcDbEntity
  8
CARTIGLIO
  6
ByLayer
 62
256
 48
1
 60
0
 67
0
370
-1
100
AcDbText
  1
Scala 1:1
 10
192
 20
15
 30
0
 40
3
  7
Standard
 11
0
 21
0
 31
0
210
0
220
0
230
1
100
AcDbText
  0
TEXT
  5
C7
330
40
100
AcDbEntity
  8
CARTIGLIO
  6
ByLayer
 62
256
 48
1
 60
0
 67
0
370
-1
100
AcDbText
  1
Materiale S235
 10
242
 20
15
 30
0
 40
3
  7
Standard
 11
0
 21
0
 31
0
210
0
220
0
230
1
100
AcDbText
  0
VIEWPORT
  5
47
330
44
100
AcDbEntity
  8
0
  6
ByLayer
 62
256
 48
1
 60
0
 67
1
370
-1
100
AcDbViewport
 10
148.5
 20
105
 30
0
 40
297
 41
210
 68
1
 69
1
 12
0
 22
0
 13
0
 23
0
 14
0
 24
0
 15
0
 25
0
 16
0
 26
0
 36
1
 17
0
 27
0
 37
0
 42
0
 43
0
 44
0
 45
0
 50
0
 51
0
 72
0
 90
0
110
0
120
0
130
0
111
1
121
0
131
0
112
0
122
1
132
0
  0
ENDSEC
  0
SECTION
  2
OBJECTS
  0
DICTIONARY
  5
A
330
0
100
AcDbDictionary
280
0
281
0
  3
ACAD_COLOR
350
B
  3
ACAD_GROUP
350
C
  3
ACAD_LAYOUT
350
D
  3
ACAD_SORTENTS
350
F
  3
ACAD_MLEADERSTYLE
350
10
  3
ACAD_MLINESTYLE
350
11
  3
ACAD_TABLESTYLE
350
12
  3
ACAD_PLOTSETTINGS
350
13
  3
AcDbVariableDictionary
350
14
  3
ACAD_SCALELIST
350
15
  3
ACAD_VISUALSTYLE
350
16
  3
ACAD_FIELDLIST
350
17
  3
ACAD_IMAGE_DICT
350
18
  3
ACAD_PDFDEFINITIONS
350
2F
  0
DICTIONARY
  5
B
330
A
100
AcDbDictionary
280
0
281
0
  0
DICTIONARY
  5
C
330
A
100
AcDbDictionary
280
0
281
0
  0
DICTIONARY
  5
D
330
A
100
AcDbDictionary
280
0
281
0
  3
Model
350
3F
  3
Layout1
350
43
  0
DICTIONARY
  5
F
330
A
100
AcDbDictionary
280
0
281
0
  0
DICTIONARY
  5
10
330
A
100
AcDbDictionary
280
0
281
0
  3
Standard
350
2C
  0
DICTIONARY
  5
11
330
A
100
AcDbDictionary
280
0
281
0
  3
Standard
350
2A
  0
DICTIONARY
  5
12
330
A
100
AcDbDictionary
280
0
281
0
  3
Standard
350
2E
  0
DICTIONARY
  5
13
330
A
100
AcDbDictionary
280
0
281
0
  0
DICTIONARY
  5
14
330
A
100
AcDbDictionary
280
0
281
0
  3
CMLEADERSTYLE
350
30
  3
CANNOSCALE
350
31
  3
CTABLESTYLE
350
32
  3
WIPEOUTFRAME
350
33
  3
CVIEWDETAILSTYLE
350
34
  3
CVIEWSECTIONSTYLE
350
35
  0
DICTIONARY
  5
15
330
A
100
AcDbDictionary
280
0
281
0
  3
1:1
350
19
  3
1:2
350
1A
  3
1:4
350
1B
  3
1:5
350
1C
  3
1:8
350
1D
  3
1:10
350
1E
  3
1:16
350
1F
  3
1:20
350
20
  3
1:30
350
21
  3
1:40
350
22
  3
1:50
350
23
  3
1:100
350
24
  3
2:1
350
25
  3
4:1
350
26
  3
8:1
350
27
  3
10:1
350
28
  3
100:1
350
29
  0
DICTIONARY
  5
16
330
A
100
AcDbDictionary
280
0
281
0
  0
DICTIONARY
  5
17
330
A
100
AcDbDictionary
280
0
281
0
  0
DICTIONARY
  5
18
330
A
100
AcDbDictionary
280
0
281
0
  0
DICTIONARY
  5
2F
330
A
100
AcDbDictionary
280
0
281
0
  0
LAYOUT
  5
3F
330
D
100
AcDbPlotSettings
  1
none_device
  4
ISO_A4_(210.00_x_297.00_MM)
 40
0
 41
0
 42
0
 43
0
 44
297
 45
210
 46
0
 47
0
 48
0
 49
0
140
0
141
0
142
1
143
1
 70
688
 72
1
 73
0
 74
1
 75
0
 76
0
 77
0
 78
300
147
1
148
0
149
0
100
AcDbLayout
  1
Model
 71
0
 10
-20
 20
-7.5
 11
277
 21
202.5
 12
0
 22
0
 32
0
 13
0
 23
0
 33
0
 14
25.7
 24
19.5
 34
0
 15
231.3
 25
175.5
 35
0
 16
1
 26
0
 36
0
 17
0
 27
1
 37
0
146
0
 76
0
330
40
  0
LAYOUT
  5
43
330
D
100
AcDbPlotSettings
  1
none_device
  4
ISO_A4_(210.00_x_297.00_MM)
 40
0
 41
0
 42
0
 43
0
 44
297
 45
210
 46
0
 47
0
 48
0
 49
0
140
0
141
0
142
1
143
1
 70
688
 72
1
 73
0
 74
1
 75
0
 76
0
 77
0
 78
300
147
1
148
0
149
0
100
AcDbLayout
  1
Layout1
 71
1
 10
-20
 20
-7.5
 11
277
 21
202.5
 12
0
 22
0
 32
0
 13
0
 23
0
 33
0
 14
25.7
 24
19.5
 34
0
 15
231.3
 25
175.5
 35
0
 16
1
 26
0
 36
0
 17
0
 27
1
 37
0
146
0
 76
0
330
44
  0
MLEADERSTYLE
  5
2C
330
10
100
AcDbMLeaderStyle
179
2
170
2
171
0
172
0
 90
2
 40
0
 41
0
173
0
 91
-1056964608
340
2B
 92
-2
290
1
 42
0.09
291
1
 43
0.36
  3

 44
0.18
300

342
2D
174
0
178
0
175
1
176
0
 93
-1056964608
 45
0.18
292
0
297
0
 46
0
 94
-1056964608
 47
1
 49
1
140
1
293
0
141
0
294
0
177
0
142
1
295
0
296
0
143
0.125
271
0
272
0
273
0
298
0
  0
MLINESTYLE
  5
2A
330
11
100
AcDbMlineStyle
  2
Standard
 70
0
 62
256
 51
90
 52
90
 71
2
 49
0.5
 62
256
  6
ByLayer
 49
-0.5
 62
256
  6
ByLayer
  0
TABLESTYLE
  5
2E
330
12
100
AcDbTableStyle
 70
0
 71
0
 40
0.06
 41
0.06
280
0
281
0
  7
Standard
140
0
170
0
 62
0
 63
0
283
0
 90
0
 91
0
274
-2
284
1
 64
0
275
-2
285
1
 65
0
276
-2
286
1
 66
0
277
-2
287
1
 67
0
278
-2
288
1
 68
0
279
-2
289
1
 69
0
  7
Standard
140
0
170
0
 62
0
 63
0
283
0
 90
0
 91
0
274
-2
284
1
 64
0
275
-2
285
1
 65
0
276
-2
286
1
 66
0
277
-2
287
1
 67
0
278
-2
288
1
 68
0
279
-2
289
1
 69
0
  7
Standard
140
0
170
0
 62
0
 63
0
283
0
 90
0
 91
0
274
-2
284
1
 64
0
275
-2
285
1
 65
0
276
-2
286
1
 66
0
277
-2
287
1
 67
0
278
-2
288
1
 68
0
279
-2
289
1
 69
0
  0
DICTIONARYVAR
  5
30
330
14
100
DictionaryVariables
  1
Standard
280
0
  0
DICTIONARYVAR
  5
31
330
14
100
DictionaryVariables
  1
1:1
280
0
  0
DICTIONARYVAR
  5
32
330
14
100
DictionaryVariables
  1
Standard
280
0
  0
DICTIONARYVAR
  5
33
330
14
100
DictionaryVariables
  1
1
280
0
  0
DICTIONARYVAR
  5
34
330
14
100
DictionaryVariables
  1
Metric50
280
0
  0
DICTIONARYVAR
  5
35
330
14
100
DictionaryVariables
  1
Metric50
280
0
  0
SCALE
  5
19
330
15
100
AcDbScale
 70
0
300
1:1
140
1
141
1
290
1
  0
SCALE
  5
1A
330
15
100
AcDbScale
 70
0
300
1:2
140
1
141
2
290
0
  0
SCALE
  5
1B
330
15
100
AcDbScale
 70
0
300
1:4
140
1
141
4
290
0
  0
SCALE
  5
1C
330
15
100
AcDbScale
 70
0
300
1:5
140
1
141
5
290
0
  0
SCALE
  5
1D
330
15
100
AcDbScale
 70
0
300
1:8
140
1
141
8
290
0
  0
SCALE
  5
1E
330
15
100
AcDbScale
 70
0
300
1:10
140
1
141
10
290
0
  0
SCALE
  5
1F
330
15
100
AcDbScale
 70
0
300
1:16
140
1
141
16
290
0
  0
SCALE
  5
20
330
15
100
AcDbScale
 70
0
300
1:20
140
1
141
20
290
0
  0
SCALE
  5
21
330
15
100
AcDbScale
 70
0
300
1:30
140
1
141
30
290
0
  0
SCALE
  5
22
330
15
100
AcDbScale
 70
0
300
1:40
140
1
141
40
290
0
  0
SCALE
  5
23
330
15
100
AcDbScale
 70
0
300
1:50
140
1
141
50
290
0
  0
SCALE
  5
24
330
15
100
AcDbScale
 70
0
300
1:100
140
1
141
100
290
0
  0
SCALE
  5
25
330
15
100
AcDbScale
 70
0
300
2:1
140
2
141
1
290
0
  0
SCALE
  5
26
330
15
100
AcDbScale
 70
0
300
4:1
140
4
141
1
290
0
  0
SCALE
  5
27
330
15
100
AcDbScale
 70
0
300
8:1
140
8
141
1
290
0
  0
SCALE
  5
28
330
15
100
AcDbScale
 70
0
300
10:1
140
10
141
1
290
0
  0
SCALE
  5
29
330
15
100
AcDbScale
 70
0
300
100:1
140
100
141
1
290
0
  0
ENDSEC
  0
EOF
